<svg width="375" height="390" viewBox="0 0 375 390" fill="none" xmlns="http://www.w3.org/2000/svg">
<mask id="mask0_2016_23" style="mask-type:alpha" maskUnits="userSpaceOnUse" x="0" y="0" width="375" height="390">
<rect width="375" height="390" fill="#D9D9D9"/>
</mask>
<g mask="url(#mask0_2016_23)">
<path d="M0 13L58 32L182 24.5L315.5 59.5L375 47V390H0V13Z" fill="#009EDE"/>
<path d="M310.76 -384.817C242.808 -415.205 158.992 -443.69 81.6149 -407.247C-0.443918 -368.6 -55.116 -285.222 -73.583 -203.497C-91.18 -125.623 -69.2529 -42.8264 -10.8949 7.17474C15.5182 29.8055 50.2732 31.4954 84.8285 29.274C94.6953 28.6397 105.081 27.6317 115.385 26.6314C122.919 25.9001 130.41 25.1731 137.624 24.5992C155.163 23.2041 172.184 22.5888 188.243 24.3901C202.624 26.0031 216.916 30.1778 231.433 35.2583C237.312 37.3161 243.446 39.6083 249.638 41.9223C258.199 45.1214 266.872 48.3622 275.138 51.083C304.428 60.7234 335.254 66.3087 366.561 49.4764C397.544 32.819 416.724 5.33184 429.191 -25.0884C441.623 -55.4244 447.607 -89.2364 451.898 -119.314C459.407 -171.955 435.91 -216.185 413.623 -258.136C413.215 -258.906 412.806 -259.675 412.398 -260.443C409.825 -265.29 407.266 -270.214 404.691 -275.171C394.822 -294.164 384.708 -313.63 372.562 -331.033C357.097 -353.192 337.935 -372.664 310.76 -384.817Z" stroke="#30BDF7" stroke-width="15"/>
</g>
</svg>
