<svg width="375" height="398" viewBox="0 0 375 398" fill="none" xmlns="http://www.w3.org/2000/svg">
<mask id="mask0_2031_61" style="mask-type:alpha" maskUnits="userSpaceOnUse" x="0" y="0" width="375" height="398">
<rect width="375" height="398" fill="#D9D9D9"/>
</mask>
<g mask="url(#mask0_2031_61)">
<path d="M0 16L59 32.5H150.5L251.5 67.5H320L375 45.5V398H0V16Z" fill="#009EDE"/>
<path d="M-3.84895 8.29792C20.5209 26.039 49.5704 29.3787 78.0914 30.0155C86.016 30.1925 93.8528 30.169 101.594 30.1458C122.423 30.0835 142.557 30.0232 161.838 33.8747C178.654 37.2338 194.867 43.1655 211.611 49.2916C216.12 50.9414 220.669 52.6054 225.277 54.237C246.62 61.7927 268.961 68.5102 292.536 68.0247C316.397 67.5334 337.176 59.0864 356.63 50.3523C359.041 49.2699 361.427 48.1854 363.797 47.1087C380.901 39.337 397.111 31.9715 415.007 28.7454C429.566 26.121 445.425 26.039 462.058 26.9263C470.356 27.3689 478.754 28.0462 487.233 28.7469C487.883 28.8006 488.533 28.8544 489.184 28.9083C496.991 29.5547 504.866 30.2067 512.639 30.6795C545.865 32.7005 579.941 31.7457 605.094 10.7833C628.868 -9.02913 632.643 -38.1428 632.008 -66.7888C631.779 -77.1093 630.953 -87.8266 630.146 -98.3087C629.831 -102.395 629.519 -106.446 629.246 -110.424C628.257 -124.839 627.754 -138.562 629.146 -151.168C630.557 -163.95 633.208 -176.789 636.176 -189.878C636.915 -193.136 637.677 -196.421 638.442 -199.725C640.723 -209.563 643.041 -219.564 644.913 -229.501C649.936 -256.162 652.071 -283.838 642.056 -311.805C622.649 -365.999 577.879 -416.214 522.939 -443.873C495.107 -457.885 465.013 -458.41 435.988 -457.446C431.568 -457.299 427.18 -457.119 422.822 -456.94C398.008 -455.924 374.176 -454.947 351.163 -460.331C331.402 -464.954 313.379 -475.166 294.346 -485.949C292.374 -487.066 290.391 -488.19 288.394 -489.314C267.588 -501.026 245.341 -512.731 220.084 -514.862C171.423 -518.966 114.153 -513.187 79.1809 -480.906C60.2596 -463.441 56.1686 -438.997 53.7883 -416.179C53.4219 -412.667 53.0937 -409.195 52.7699 -405.77C50.9017 -386.01 49.1804 -367.802 41.132 -352.4C33.1339 -337.094 19.9388 -325.09 5.5016 -311.983L5.39155 -311.883C-8.61861 -299.165 -23.8345 -285.351 -33.0206 -267.131C-53.1483 -227.208 -71.9525 -182.746 -67.1309 -135.05C-62.1922 -86.1951 -50.2389 -25.4735 -3.84895 8.29792Z" stroke="#30BDF7" stroke-width="15"/>
</g>
</svg>
