<svg width="131" height="30" viewBox="0 0 131 30" fill="none" xmlns="http://www.w3.org/2000/svg">
<path d="M55.623 18.9936V2.97206H49.773V4.86525C49.773 8.18715 49.6196 10.5801 49.4633 11.8912C49.2686 14.3224 48.9205 17.2562 46.7109 18.6085C45.7049 19.1847 44.696 19.3023 43.6104 19.3817L43.0706 17.0652C43.46 16.9887 44.4276 16.8329 45.0058 16.5242C45.82 16.1009 46.4395 14.9427 46.7522 12.9319C46.9056 11.9294 47.1387 10.0774 47.1387 4.71238V0.62027H58.3724V18.9936H55.623Z" fill="white"/>
<path d="M91.7403 18.9936V10.3479H83.7575V18.9936H81.1261V0.62027H83.7575V8.10777H91.7403V0.62027H94.3718V18.9936H91.7403Z" fill="white"/>
<path d="M111.458 18.9936V4.48014H111.417L103.983 18.9936H100.844V0.62027H103.476V15.172H103.555L110.992 0.62027H114.131V18.9936H111.458Z" fill="white"/>
<path d="M124.94 2.85741V18.9936H122.303V2.85741H117.27V0.62027H129.976V2.85741H124.94Z" fill="white"/>
<path d="M67.2285 0.652603L61.3845 18.9936H63.9451L65.429 14.2783H73.1079L74.5387 18.9936H77.3766L71.3851 0.652603H67.2285ZM66.0632 12.0823L69.1726 1.52276H69.2286L72.4205 12.0823H66.0632Z" fill="white"/>
<path d="M35.5627 2.67517V0.617355H33.0552C27.3793 0.617355 22.1636 2.56052 18.0277 5.80599C13.8888 2.56052 8.67313 0.620295 3.00021 0.620295H0.492676V2.67811H3.00021C8.04772 2.67811 12.6999 4.35376 16.4317 7.1759C15.9243 7.6492 15.4376 8.14014 14.9715 8.65459C11.6202 6.19109 7.48131 4.73298 3.00021 4.73298H0.492676V6.7908H3.00021C6.98275 6.7908 10.6644 8.07546 13.6557 10.245C13.2398 10.7918 12.8533 11.3562 12.4846 11.9383C9.82659 9.99511 6.54615 8.84567 3.00021 8.84567H0.492676V10.9035H3.00021C6.1774 10.9035 9.10383 11.9589 11.4521 13.7374C11.1276 14.3606 10.8296 14.9985 10.5611 15.6541C8.50202 13.9726 5.87059 12.9613 3.00316 12.9613H0.495626V15.0191H3.00316C5.64344 15.0191 8.04182 16.0539 9.81184 17.7384C9.56994 18.5233 9.36933 19.3229 9.21003 20.1401C7.78516 18.2793 5.53724 17.0769 3.00611 17.0769H0.498576V19.1347H3.00611C6.17444 19.1347 8.74393 21.6953 8.74393 24.8525H8.74983V29.3709H10.8149V24.8467C10.8149 23.0769 11.0302 21.3601 11.4226 19.7109C12.343 21.2043 12.874 22.9623 12.874 24.8467H12.8799V29.365H14.9449V24.8467C14.9449 22.8976 15.2576 21.0221 15.8329 19.2612C16.5851 20.9721 17.004 22.8594 17.004 24.8467H17.0099V29.365H19.075V24.8467C19.075 22.8594 19.4939 20.9721 20.2461 19.2612C20.8184 21.0191 21.1341 22.8947 21.1341 24.8467V29.365H23.1991V24.8467H23.205C23.205 22.9652 23.736 21.2073 24.6564 19.7109C25.0488 21.3601 25.2641 23.0769 25.2641 24.8467H25.27V29.365H27.3351V24.8467C27.3351 21.6894 29.9045 19.1289 33.0729 19.1289H35.5804V17.0711H33.0729C30.5417 17.0711 28.2938 18.2734 26.8689 20.1343C26.7067 19.32 26.5061 18.5174 26.2671 17.7325C28.0372 16.048 30.4355 15.0132 33.0758 15.0132H35.5834V12.9554H33.0758C30.2054 12.9554 27.574 13.9667 25.5178 15.6482C25.2494 14.9956 24.9485 14.3547 24.6269 13.7315C26.9751 11.9559 29.9016 10.8976 33.0788 10.8976H35.5863V8.83979H33.0788C29.5299 8.83979 26.2524 9.98923 23.5944 11.9324C23.2257 11.3503 22.8362 10.7859 22.4232 10.2391C25.4146 8.06665 29.0962 6.78492 33.0788 6.78492H35.5863V4.7271H33.0788C28.5947 4.7271 24.4558 6.18521 21.1075 8.64871C20.6444 8.13426 20.1547 7.64332 19.6473 7.17002C23.3791 4.34788 28.0313 2.67223 33.0788 2.67223H35.5627V2.67517ZM15.2517 11.5473C15.768 12.0176 16.2518 12.5203 16.709 13.0495C16.2872 13.6286 15.8948 14.2342 15.5349 14.8574C15.0836 14.2959 14.5968 13.7668 14.0746 13.27C14.4434 12.6761 14.8328 12.1029 15.2517 11.5473ZM13.6144 19.4287C13.2073 18.6409 12.7176 17.9001 12.1512 17.2269C12.4138 16.5154 12.7117 15.8217 13.0421 15.1455C13.5761 15.6923 14.0628 16.2832 14.4994 16.9123C14.1513 17.7237 13.8563 18.5644 13.6144 19.4287ZM18.0247 19.2053C17.7032 18.3528 17.3079 17.5355 16.8506 16.7594C17.2017 16.0657 17.5911 15.3925 18.0247 14.7516C18.4584 15.3925 18.8478 16.0627 19.1989 16.7594C18.7416 17.5355 18.3492 18.3528 18.0247 19.2053ZM22.438 19.4287C22.1961 18.5644 21.9011 17.7237 21.55 16.9123C21.9866 16.2832 22.4763 15.6923 23.0073 15.1455C23.3378 15.8217 23.6357 16.5154 23.8983 17.2269C23.3319 17.903 22.8421 18.6409 22.438 19.4287ZM21.9748 13.27C21.4527 13.7668 20.9659 14.2959 20.5146 14.8574C20.1547 14.2342 19.7653 13.6286 19.3405 13.0495C19.7977 12.5233 20.2845 12.0206 20.7978 11.5473C21.2167 12.1029 21.609 12.6761 21.9748 13.27ZM19.4821 9.95689C18.9717 10.4184 18.4849 10.9094 18.0247 11.4209C17.5645 10.9094 17.0778 10.4184 16.5674 9.95689C17.0306 9.44832 17.5173 8.96326 18.0247 8.49879C18.5321 8.96326 19.0189 9.44832 19.4821 9.95689Z" fill="white"/>
</svg>
