<svg width="375" height="392" viewBox="0 0 375 392" fill="none" xmlns="http://www.w3.org/2000/svg">
<mask id="mask0_2031_53" style="mask-type:alpha" maskUnits="userSpaceOnUse" x="0" y="0" width="375" height="392">
<rect width="375" height="392" fill="#D9D9D9"/>
</mask>
<g mask="url(#mask0_2031_53)">
<path d="M0 51L58.5 13.5L150.5 26.5L251.5 61.5L321 78L375 68V392H0V51Z" fill="#009EDE"/>
<path d="M-375.643 -423.886C-392.102 -421.565 -404.182 -415.14 -413.208 -405.868C-422.077 -396.756 -427.566 -385.331 -431.704 -373.719C-434.318 -366.385 -436.572 -358.386 -438.747 -350.665C-439.934 -346.454 -441.097 -342.325 -442.283 -338.433C-445.783 -326.942 -449.698 -316.599 -455.52 -308.109C-462.269 -298.265 -473.417 -288.914 -486.588 -279.257C-491.031 -275.999 -495.754 -272.675 -500.54 -269.306C-509.448 -263.036 -518.575 -256.612 -526.533 -250.17C-538.807 -240.235 -550.026 -228.976 -554.927 -215.686C-560.123 -201.596 -557.772 -186.593 -545.965 -170.794C-532.511 -152.792 -513.607 -140.261 -492.12 -130.753C-470.667 -121.261 -446.18 -114.59 -421.167 -108.58C-413.436 -106.723 -405.665 -104.928 -397.904 -103.135C-354.796 -93.1767 -311.991 -83.2885 -278.125 -63.2195C-257.013 -50.7089 -246.159 -31.9985 -234.321 -11.5938C-233.946 -10.9478 -233.57 -10.3001 -233.193 -9.65085C-221.108 11.1556 -207.67 33.4293 -180.225 46.5752C-127.862 71.6562 -70.4375 63.9147 -24.4036 56.8996C-3.38649 53.6968 10.3166 41.9588 22.2109 31.7702C23.1602 30.957 24.098 30.1537 25.027 29.3654C37.7632 18.5588 49.3587 9.92301 68.4113 9.91566C92.0541 9.90655 120.146 16.1724 150.145 25.0348C168.821 30.5524 187.771 36.9241 206.615 43.2605C218.128 47.132 229.603 50.9902 240.952 54.6324C270.466 64.1045 298.932 72.0409 322.819 73.8108C346.532 75.5677 368.148 71.3882 380.804 53.6942C391.037 39.3866 401.686 15.0253 410.83 -13.8742C420.032 -42.9569 427.911 -77.2782 432.335 -111.921C436.753 -146.52 437.767 -181.748 433.044 -212.534C428.344 -243.171 417.797 -270.455 398.137 -287.854C385.064 -299.424 370.267 -310.084 355.933 -320.41C351.213 -323.81 346.544 -327.174 342.002 -330.523C323.355 -344.271 306.645 -357.899 295.034 -373.63C289.313 -381.383 280.699 -386.037 270.929 -388.737C261.172 -391.433 249.665 -392.353 237.252 -392.204C212.454 -391.905 182.369 -387.288 152.131 -382.315C148.618 -381.737 145.101 -381.154 141.587 -380.572C114.595 -376.099 87.7744 -371.653 63.9069 -369.732C36.5429 -367.528 14.9524 -368.856 1.82385 -375.805C-30.0273 -392.664 -57.5273 -383.189 -82.8629 -372.152C-85.829 -370.859 -88.7605 -369.552 -91.6686 -368.255C-114.183 -358.214 -135.29 -348.801 -160.114 -351.949C-191.056 -355.872 -223.059 -371.872 -255.921 -388.301C-259.751 -390.216 -263.593 -392.137 -267.446 -394.045C-285.616 -403.043 -303.955 -411.684 -321.924 -417.474C-339.903 -423.267 -358 -426.373 -375.643 -423.886Z" stroke="#30BDF7" stroke-width="15"/>
</g>
</svg>
