<svg width="375" height="380" viewBox="0 0 375 380" fill="none" xmlns="http://www.w3.org/2000/svg">
<mask id="mask0_2031_57" style="mask-type:alpha" maskUnits="userSpaceOnUse" x="0" y="0" width="375" height="380">
<rect width="375" height="380" fill="#D9D9D9"/>
</mask>
<g mask="url(#mask0_2031_57)">
<path d="M0 14.5H59H150.5L273.5 27.5H323.5L375 14.5V380H0V14.5Z" fill="#009EDE"/>
<path d="M289.194 -482.508C250.177 -489.729 219.322 -468.871 191.473 -444.664C184.638 -438.723 177.861 -432.464 171.135 -426.254L170.567 -425.729C163.625 -419.319 156.729 -412.962 149.705 -406.886C135.635 -394.714 121.381 -383.965 106.071 -376.667C87.7297 -367.924 67.0141 -362.647 45.2445 -358.529C34.5805 -356.512 23.7721 -354.791 12.9095 -353.062L12.2773 -352.961C1.24231 -351.204 -9.84953 -349.432 -20.668 -347.347C-63.6094 -339.073 -104.909 -325.463 -126.291 -284.369C-147.747 -243.132 -149.925 -194.601 -139.074 -148.592C-128.222 -102.577 -104.219 -58.4986 -72.4474 -25.7267C-42.7502 4.9052 -3.48854 12.1782 36.8029 13.3156C52.7249 13.7651 69.1539 13.2561 85.4 12.7529C89.6922 12.6199 93.9717 12.4874 98.2256 12.373C118.744 11.8212 138.835 11.6824 158.011 13.7748C171.122 15.2054 184.02 17.0309 196.919 18.8563C198.389 19.0645 199.86 19.2726 201.331 19.4802C215.651 21.5007 229.981 23.4628 244.305 24.7574C272.985 27.3495 301.973 27.3036 331.867 19.644C350.004 14.9969 369.754 11.2768 390.14 7.43682C393.851 6.73793 397.582 6.03511 401.329 5.32199C425.507 0.719945 450.214 -4.29381 473.03 -11.3859C518.462 -25.5083 558.586 -48.5687 571.666 -95.5996C584.83 -142.933 559.328 -181.307 526.659 -215.427C514.614 -228.007 501.194 -240.407 487.922 -252.672C483.133 -257.097 478.364 -261.504 473.685 -265.896C455.857 -282.629 439.165 -299.291 426.361 -316.765C415.974 -330.942 407.009 -347.192 398.184 -364.126C396.179 -367.974 394.176 -371.866 392.166 -375.775C385.416 -388.897 378.573 -402.197 371.22 -414.596C352.133 -446.779 328.274 -475.275 289.194 -482.508Z" stroke="#30BDF7" stroke-width="15"/>
</g>
</svg>
