<svg width="375" height="379" viewBox="0 0 375 379" fill="none" xmlns="http://www.w3.org/2000/svg">
<mask id="mask0_2031_44" style="mask-type:alpha" maskUnits="userSpaceOnUse" x="0" y="0" width="375" height="379">
<rect width="375" height="379" fill="#D9D9D9"/>
</mask>
<g mask="url(#mask0_2031_44)">
<path d="M0 13.5L58 21L182 13.5L316 41L375 36V379H0V13.5Z" fill="#009EDE"/>
<path d="M114.252 -395.585C97.5183 -386.228 79.2009 -378.527 60.3735 -371.036C56.4837 -369.488 52.5655 -367.947 48.6363 -366.402C33.6933 -360.525 18.5902 -354.584 4.28175 -347.98C-31.9036 -331.277 -64.915 -309.511 -81.2564 -270.548C-115.584 -188.7 -105.581 -79.4254 -41.7163 -15.7499C-10.5313 15.3425 30.4869 19.0929 71.9855 16.8566C85.4783 16.1295 99.4495 14.7311 113.306 13.3443C120.667 12.6075 127.995 11.874 135.202 11.2461C156.261 9.41141 176.798 8.41442 196.303 10.4172C212.037 12.0329 227.819 15.7053 243.804 19.9875C249.262 21.4497 254.797 22.9991 260.361 24.5567C270.86 27.4956 281.462 30.4635 291.845 32.9287C323.845 40.5271 356.759 44.1776 388.842 29.0641C456.872 -2.98259 491.052 -74.3715 516.477 -141.549C520.897 -153.227 525.791 -165.31 530.788 -177.65C543.358 -208.691 556.584 -241.348 564.571 -273.233C575.814 -318.11 577.317 -363.549 551.712 -403.794C526.187 -443.913 484.634 -464.278 439.043 -474.406C393.513 -484.519 342.964 -484.646 298.16 -483.521C261.583 -482.603 230.298 -468.586 200.973 -451.014C188.12 -443.312 175.485 -434.827 162.944 -426.404C161.205 -425.236 159.467 -424.069 157.731 -422.906C143.402 -413.303 129.109 -403.892 114.252 -395.585Z" stroke="#30BDF7" stroke-width="15"/>
</g>
</svg>
