<svg width="375" height="394" viewBox="0 0 375 394" fill="none" xmlns="http://www.w3.org/2000/svg">
<mask id="mask0_2031_48" style="mask-type:alpha" maskUnits="userSpaceOnUse" x="0" y="0" width="375" height="394">
<rect width="375" height="394" fill="#D9D9D9"/>
</mask>
<g mask="url(#mask0_2031_48)">
<path d="M0 12L59 28.5H150.5L251.5 63.5H320L375 41.5V394H0V12Z" fill="#009EDE"/>
<path d="M-3.84895 4.29816C20.5209 22.0392 49.5704 25.379 78.0914 26.0158C86.016 26.1927 93.8528 26.1692 101.594 26.1461C122.423 26.0837 142.557 26.0235 161.838 29.8749C178.654 33.234 194.867 39.1657 211.611 45.2918C216.12 46.9417 220.669 48.6057 225.277 50.2373C246.62 57.793 268.961 64.5104 292.536 64.025C316.397 63.5336 337.176 55.0867 356.63 46.3526C359.041 45.2702 361.427 44.1856 363.797 43.1089C380.901 35.3373 397.111 27.9717 415.007 24.7456C429.566 22.1212 445.425 22.0393 462.058 22.9265C470.356 23.3691 478.754 24.0465 487.233 24.7471C487.883 24.8008 488.533 24.8547 489.184 24.9085C496.991 25.5549 504.866 26.2069 512.639 26.6797C545.865 28.7008 579.941 27.746 605.094 6.78354C628.868 -13.0289 632.643 -42.1425 632.008 -70.7886C631.779 -81.1091 630.953 -91.8263 630.146 -102.308C629.831 -106.395 629.519 -110.446 629.246 -114.424C628.257 -128.839 627.754 -142.562 629.146 -155.168C630.557 -167.95 633.208 -180.789 636.176 -193.878C636.915 -197.136 637.677 -200.421 638.442 -203.725C640.723 -213.563 643.041 -223.564 644.913 -233.501C649.936 -260.162 652.071 -287.837 642.056 -315.805C622.649 -369.999 577.879 -420.214 522.939 -447.873C495.107 -461.884 465.013 -462.409 435.988 -461.445C431.568 -461.298 427.18 -461.119 422.822 -460.94C398.008 -459.923 374.176 -458.947 351.163 -464.331C331.402 -468.954 313.379 -479.166 294.346 -489.949C292.374 -491.066 290.391 -492.19 288.394 -493.314C267.588 -505.026 245.341 -516.731 220.084 -518.861C171.423 -522.966 114.153 -517.186 79.1809 -484.906C60.2596 -467.441 56.1686 -442.997 53.7883 -420.179C53.4219 -416.667 53.0937 -413.195 52.7699 -409.77C50.9017 -390.009 49.1804 -371.802 41.132 -356.4C33.1339 -341.094 19.9388 -329.089 5.5016 -315.983L5.39155 -315.883C-8.61861 -303.164 -23.8345 -289.351 -33.0206 -271.131C-53.1483 -231.208 -71.9525 -186.745 -67.1309 -139.05C-62.1922 -90.1948 -50.2389 -29.4732 -3.84895 4.29816Z" stroke="#30BDF7" stroke-width="15"/>
</g>
</svg>
